<svg width="16" height="16" viewBox="0 0 16 16" fill="none" xmlns="http://www.w3.org/2000/svg">
<path d="M14.6279 6.04688C15.0174 6.05524 15.3714 6.21664 15.627 6.49609C15.866 6.75669 16 7.09813 16 7.45801C15.9999 7.83924 15.8518 8.19675 15.583 8.46387L12.1494 11.8965C11.7301 12.3133 11.1804 12.5429 10.5957 12.543H6.73242C6.63845 12.543 6.54512 12.5578 6.45605 12.5859L7.02734 13.1572L4.64453 15.54L0 10.8955L2.38281 8.50977L3.04492 9.17188L4.74316 7.47461C4.95908 7.25623 5.20701 7.07363 5.47754 6.92969C6.34613 6.46563 7.36858 6.45597 8.20898 6.89844C8.27265 6.93233 8.34063 6.97054 8.4043 7.0127C8.68392 7.1798 8.9452 7.40908 9.17188 7.68457H10.7627C11.1928 7.68467 11.5732 7.89379 11.8105 8.21387L13.541 6.48145C13.8273 6.1952 14.2259 6.03612 14.6279 6.04688ZM1.19922 10.8955L4.64453 14.3408L5.82812 13.1572L2.38281 9.70898L1.19922 10.8955ZM14.6094 6.89258C14.434 6.89012 14.2648 6.95671 14.1416 7.0791L12.0449 9.17773C12.0042 9.44925 11.8804 9.70136 11.6797 9.90137C11.434 10.1469 11.1085 10.2831 10.7637 10.2832L10.7656 10.2803H8.35059V9.43359H10.7646C10.883 9.43359 10.9961 9.38667 11.083 9.2998C11.1697 9.21298 11.2155 9.10286 11.2139 8.98633L11.2188 8.98535V8.9834C11.2188 8.73356 11.0145 8.5293 10.7646 8.5293H8.75L8.62305 8.35449C8.43034 8.08736 8.21213 7.88193 7.9541 7.72559C7.89867 7.68919 7.86002 7.66897 7.82031 7.64746C7.22548 7.33393 6.50088 7.34585 5.87793 7.67676C5.68105 7.78264 5.50063 7.91442 5.3418 8.07324L3.64355 9.77051L5.81934 11.9482C6.09281 11.7825 6.40639 11.6934 6.7334 11.6934H10.5967C10.9564 11.6932 11.2957 11.5504 11.5537 11.2949L14.9863 7.8623C15.0947 7.75393 15.1543 7.60783 15.1543 7.45312C15.1542 7.30685 15.1005 7.16972 15.0029 7.06641C14.9037 6.95648 14.764 6.89671 14.6094 6.89258ZM10.5625 0C12.5472 3.54202e-05 14.1631 1.61598 14.1631 3.60059C14.1629 5.58505 12.5471 7.20016 10.5625 7.2002C8.57789 7.2002 6.96208 5.58507 6.96191 3.60059C6.96191 1.61596 8.57779 0 10.5625 0ZM10.5625 0.84668C9.04356 0.84668 7.80957 2.08171 7.80957 3.60059C7.80973 5.11932 9.04366 6.35352 10.5625 6.35352C12.0813 6.35348 13.3153 5.1193 13.3154 3.60059C13.3154 2.08173 12.0814 0.846715 10.5625 0.84668Z" fill="black"/>
</svg>
