<svg width="16" height="16" viewBox="0 0 16 16" fill="none" xmlns="http://www.w3.org/2000/svg">
<path fill-rule="evenodd" clip-rule="evenodd" d="M1.95048 12.1466C1.34846 12.138 0.843695 12.5868 0.834072 13.1559L0.821679 13.9144L0.524258 13.9104L0.471994 13.9119C0.213997 13.9326 0.00428983 14.1328 0 14.3868L0.00161642 14.4371C0.0244335 14.684 0.244333 14.8745 0.508094 14.8784L8.06808 14.9882L8.07132 14.9877L8.88222 14.9999C9.14608 15.0038 9.37236 14.8197 9.40325 14.5734L9.40702 14.5235C9.41152 14.2525 9.17975 14.036 8.89838 14.0319L8.6015 14.0273L8.61389 13.2687C8.62329 12.6997 8.13395 12.2367 7.53197 12.228L1.95048 12.1466ZM7.51581 13.1955C7.55553 13.1961 7.58074 13.226 7.58046 13.2535L7.56807 14.0126L1.85511 13.9292L1.8675 13.1711C1.86803 13.1437 1.89421 13.1143 1.93431 13.1147L7.51581 13.1955Z" fill="currentColor"/>
<path fill-rule="evenodd" clip-rule="evenodd" d="M9.94636 1.27697C9.56938 0.915334 8.94826 0.906909 8.55947 1.25714L8.12466 1.64761C7.93625 1.81728 7.82871 2.04763 7.82454 2.29332C7.82216 2.43787 7.85733 2.57749 7.92261 2.70413L4.81639 5.50099C4.67342 5.43371 4.51455 5.39991 4.35577 5.40051C4.2159 5.40105 4.08382 5.45611 3.96142 5.52379C3.71753 5.65864 3.48992 5.82103 3.28306 6.00778L3.24577 6.04145C2.85474 6.39371 2.84484 6.97724 3.22368 7.34099L6.33421 10.3229C6.52329 10.5043 6.77397 10.5963 7.02334 10.6C7.27276 10.6036 7.52654 10.5191 7.72163 10.3433L8.15537 9.95227C8.34395 9.78256 8.45189 9.5524 8.45602 9.30657C8.45841 9.16194 8.42437 9.02193 8.35904 8.89525L9.01261 8.30649L13.8532 12.9474L13.8538 12.9469C14.086 13.1697 14.3981 13.2954 14.7299 13.3003C15.0619 13.3051 15.3786 13.1888 15.6184 12.9728C15.858 12.757 15.9946 12.4654 15.9999 12.1538C16.005 11.8422 15.8783 11.5467 15.6459 11.324L12.9599 8.74831C12.9555 8.74405 12.9511 8.73953 12.9475 8.73611L12.9351 8.72442L10.8117 6.68715L11.462 6.10144C11.5969 6.16763 11.747 6.2049 11.9028 6.20719C12.1631 6.21094 12.4121 6.11931 12.6005 5.94993L13.0348 5.55895C13.4259 5.20663 13.4359 4.62263 13.0569 4.2589L9.94636 1.27697ZM12.5078 9.69907C12.516 9.7072 12.5242 9.71504 12.5299 9.72043L12.6377 9.82466C13.056 10.2257 13.7627 10.9036 14.9066 12.0007C14.947 12.0395 14.9672 12.0879 14.9664 12.1385C14.9656 12.1893 14.9442 12.2376 14.9023 12.2753C14.8222 12.3474 14.67 12.3448 14.5925 12.2707L9.75778 7.63588L10.0665 7.35777L12.5078 9.69907ZM4.47048 6.48327L4.47371 6.48683L7.39889 9.29081L7.04004 9.61366L4.00225 6.70189L4.36164 6.37904L4.47048 6.48327ZM10.7045 5.44048L8.66562 7.27642C8.66452 7.27741 8.66348 7.27847 8.66239 7.27947L7.67476 8.16922L5.57718 6.15889L8.60743 3.43016L10.7045 5.44048ZM12.2783 4.89698L11.9195 5.22034L8.98783 2.41026L8.98298 2.40568L8.88168 2.30908L9.24107 1.98572L12.2783 4.89698Z" fill="currentColor"/>
</svg>
