<svg width="69" height="61" viewBox="0 0 69 61" fill="none" xmlns="http://www.w3.org/2000/svg">
<path d="M28.0241 0H64.0636L52.8013 11.8255H16.7618L28.0241 0Z" fill="url(#paint0_linear_14_734)"/>
<path d="M16.7618 24.4956L64.3452 24.4956L53.0829 36.3211H5.49945L16.7618 24.4956Z" fill="url(#paint1_linear_14_734)"/>
<path d="M64.3452 24.4956V37.1657L53.0829 48.9912L53.0829 36.3211L64.3452 24.4956Z" fill="url(#paint2_linear_14_734)"/>
<path d="M64.0636 0V12.6701L52.8013 24.4956L52.8013 11.8255L64.0636 0Z" fill="url(#paint3_linear_14_734)"/>
<path d="M16.7618 11.8255V24.4956L5.49945 36.3211L5.49945 23.6509L16.7618 11.8255Z" fill="url(#paint4_linear_14_734)"/>
<path d="M15.9171 48.9912L53.0828 48.9912L41.8205 60.8167H4.65477L15.9171 48.9912Z" fill="url(#paint5_linear_14_734)"/>
<defs>
<linearGradient id="paint0_linear_14_734" x1="58.5226" y1="5.87894" x2="23.6541" y2="5.2879" gradientUnits="userSpaceOnUse">
<stop stop-color="#EAFFED"/>
<stop offset="1" stop-color="#ADFDB8"/>
</linearGradient>
<linearGradient id="paint1_linear_14_734" x1="57.4518" y1="30.3745" x2="14.0806" y2="29.46" gradientUnits="userSpaceOnUse">
<stop stop-color="#EAFFED"/>
<stop offset="1" stop-color="#ADFDB8"/>
</linearGradient>
<linearGradient id="paint2_linear_14_734" x1="55.6602" y1="32.0301" x2="55.6602" y2="47.0724" gradientUnits="userSpaceOnUse">
<stop stop-color="#00FF21"/>
<stop offset="1" stop-color="white"/>
</linearGradient>
<linearGradient id="paint3_linear_14_734" x1="56.4954" y1="6.99392" x2="58.6036" y2="21.0715" gradientUnits="userSpaceOnUse">
<stop stop-color="#00FF22"/>
<stop offset="1" stop-color="white"/>
</linearGradient>
<linearGradient id="paint4_linear_14_734" x1="10.072" y1="18.549" x2="12.0168" y2="31.5361" gradientUnits="userSpaceOnUse">
<stop stop-color="#00FF22"/>
<stop offset="1" stop-color="#67FF7B"/>
</linearGradient>
<linearGradient id="paint5_linear_14_734" x1="47.4098" y1="54.8701" x2="11.7116" y2="54.2506" gradientUnits="userSpaceOnUse">
<stop stop-color="#3DFF57"/>
<stop offset="1" stop-color="#ADFDB8"/>
</linearGradient>
</defs>
</svg>
