<svg width="69" height="110" viewBox="0 0 69 110" fill="none" xmlns="http://www.w3.org/2000/svg">
<path d="M28.1111 0H63.6667L52.5556 11.6667H17L28.1111 0Z" fill="url(#paint0_linear_14_732)"/>
<path d="M17 24.1667L63.9444 24.1667L52.8333 35.8333H5.88889L17 24.1667Z" fill="url(#paint1_linear_14_732)"/>
<path d="M63.9444 24.1667V36.6667L52.8333 48.3333L52.8333 35.8333L63.9444 24.1667Z" fill="url(#paint2_linear_14_732)"/>
<path d="M63.6667 0V12.5L52.5555 24.1667L52.5555 11.6667L63.6667 0Z" fill="url(#paint3_linear_14_732)"/>
<path d="M17 11.6667V24.1667L5.88889 35.8333L5.88889 23.3333L17 11.6667Z" fill="url(#paint4_linear_14_732)"/>
<path d="M16.1667 48.3333L52.8333 48.3333L41.7222 60H5.05554L16.1667 48.3333Z" fill="url(#paint5_linear_14_732)"/>
<path d="M5.76 101.192C4.864 101.192 4.07467 101.032 3.392 100.712C2.73067 100.371 2.21867 99.8053 1.856 99.016C1.49333 98.2053 1.312 97.0853 1.312 95.656V94.632C1.568 94.632 1.824 94.632 2.08 94.632C2.35733 94.632 2.61333 94.632 2.848 94.632V95.752C2.848 96.8827 2.96533 97.768 3.2 98.408C3.456 99.048 3.808 99.496 4.256 99.752C4.704 100.008 5.216 100.136 5.792 100.136C6.688 100.136 7.424 99.8587 8 99.304C8.59733 98.728 8.896 97.704 8.896 96.232C8.896 95.2507 8.74667 94.504 8.448 93.992C8.17067 93.48 7.744 93.0747 7.168 92.776C6.592 92.4773 5.888 92.168 5.056 91.848C4.37333 91.5707 3.75467 91.2507 3.2 90.888C2.64533 90.504 2.208 90.0027 1.888 89.384C1.568 88.744 1.408 87.9333 1.408 86.952C1.408 85.864 1.55733 84.9573 1.856 84.232C2.15467 83.5067 2.63467 82.9733 3.296 82.632C3.95733 82.2693 4.82133 82.088 5.888 82.088C7.27467 82.088 8.352 82.4507 9.12 83.176C9.90933 83.88 10.304 84.8933 10.304 86.216V88.264C10.048 88.264 9.792 88.264 9.536 88.264C9.30133 88.264 9.056 88.264 8.8 88.264V86.568C8.8 85.5013 8.544 84.6907 8.032 84.136C7.54133 83.5813 6.82667 83.304 5.888 83.304C4.864 83.304 4.11733 83.6027 3.648 84.2C3.17867 84.7973 2.944 85.6933 2.944 86.888C2.944 87.7627 3.11467 88.456 3.456 88.968C3.79733 89.4587 4.224 89.8427 4.736 90.12C5.26933 90.3973 5.83467 90.6533 6.432 90.888C7.392 91.2507 8.17067 91.6347 8.768 92.04C9.36533 92.424 9.80267 92.9253 10.08 93.544C10.3573 94.1413 10.496 94.984 10.496 96.072C10.496 97.352 10.2933 98.3653 9.888 99.112C9.48267 99.8587 8.928 100.392 8.224 100.712C7.52 101.032 6.69867 101.192 5.76 101.192ZM13.9885 101V82.088H15.5565V99.88H21.0925V101H13.9885ZM21.8253 101L26.2093 82.088H28.0973L32.4493 101H30.7853L29.6653 96.36H24.4813L23.3932 101H21.8253ZM24.5773 95.464H29.6013L27.1053 84.296L24.5773 95.464ZM35.176 101V82.088H40.808C41.8107 82.088 42.6427 82.3333 43.304 82.824C43.9867 83.3147 44.328 84.1147 44.328 85.224V87.56C44.328 88.1573 44.232 88.6907 44.04 89.16C43.8693 89.608 43.6453 89.9707 43.368 90.248C43.048 90.5467 42.6747 90.7493 42.248 90.856C41.8213 90.9413 41.4693 90.9947 41.192 91.016V90.952C41.6613 90.952 42.0987 90.9947 42.504 91.08C42.9093 91.1653 43.2507 91.3467 43.528 91.624C43.848 91.944 44.0933 92.328 44.264 92.776C44.4347 93.224 44.52 93.7467 44.52 94.344V97.128C44.52 98.216 44.3493 99.0373 44.008 99.592C43.6667 100.147 43.1973 100.52 42.6 100.712C42.0027 100.904 41.2987 101 40.488 101H35.176ZM36.744 100.072H40.232C40.7867 100.072 41.2667 99.9973 41.672 99.848C42.0773 99.6987 42.3867 99.4107 42.6 98.984C42.8347 98.536 42.952 97.8747 42.952 97V94.344C42.952 93.256 42.664 92.5413 42.088 92.2C41.512 91.8373 40.7867 91.656 39.912 91.656H36.744V100.072ZM36.744 90.6H39.88C40.84 90.6 41.5653 90.3547 42.056 89.864C42.568 89.352 42.824 88.6373 42.824 87.72V85.48C42.824 84.648 42.5893 84.04 42.12 83.656C41.6507 83.2507 41.096 83.048 40.456 83.048H36.744V90.6ZM48.8748 101.192C48.5761 101.192 48.3201 101.096 48.1068 100.904C47.9148 100.712 47.8188 100.477 47.8188 100.2C47.8188 99.9227 47.9148 99.688 48.1068 99.496C48.3201 99.2827 48.5761 99.176 48.8748 99.176C49.1521 99.176 49.3974 99.2827 49.6108 99.496C49.8241 99.688 49.9308 99.9227 49.9308 100.2C49.9308 100.477 49.8241 100.712 49.6108 100.904C49.3974 101.096 49.1521 101.192 48.8748 101.192Z" fill="url(#paint6_linear_14_732)"/>
<path d="M53.7073 101V82.088H61.7393V83.24H55.3393V90.472H60.3633V91.688H55.3393V101H53.7073ZM64.426 101V82.088H65.994V101H64.426Z" fill="white"/>
<defs>
<linearGradient id="paint0_linear_14_732" x1="58.2" y1="5.8" x2="23.7997" y2="5.21689" gradientUnits="userSpaceOnUse">
<stop stop-color="#EAFFED"/>
<stop offset="1" stop-color="#ADFDB8"/>
</linearGradient>
<linearGradient id="paint1_linear_14_732" x1="57.1436" y1="29.9667" x2="14.3548" y2="29.0644" gradientUnits="userSpaceOnUse">
<stop stop-color="#EAFFED"/>
<stop offset="1" stop-color="#ADFDB8"/>
</linearGradient>
<linearGradient id="paint2_linear_14_732" x1="55.3761" y1="31.6" x2="55.3761" y2="46.4403" gradientUnits="userSpaceOnUse">
<stop stop-color="#00FF21"/>
<stop offset="1" stop-color="white"/>
</linearGradient>
<linearGradient id="paint3_linear_14_732" x1="56.2001" y1="6.9" x2="58.2799" y2="20.7885" gradientUnits="userSpaceOnUse">
<stop stop-color="#00FF22"/>
<stop offset="1" stop-color="white"/>
</linearGradient>
<linearGradient id="paint4_linear_14_732" x1="10.4" y1="18.3" x2="12.3187" y2="31.1126" gradientUnits="userSpaceOnUse">
<stop stop-color="#00FF22"/>
<stop offset="1" stop-color="#67FF7B"/>
</linearGradient>
<linearGradient id="paint5_linear_14_732" x1="47.2365" y1="54.1333" x2="12.0176" y2="53.5221" gradientUnits="userSpaceOnUse">
<stop stop-color="#3DFF57"/>
<stop offset="1" stop-color="#ADFDB8"/>
</linearGradient>
<linearGradient id="paint6_linear_14_732" x1="55.0673" y1="74.1533" x2="44.0273" y2="114.71" gradientUnits="userSpaceOnUse">
<stop stop-color="#00FF22"/>
<stop offset="1" stop-color="#D8FFDD"/>
</linearGradient>
</defs>
</svg>
