<svg width="16" height="16" viewBox="0 0 16 16" fill="none" xmlns="http://www.w3.org/2000/svg">
<path fill-rule="evenodd" clip-rule="evenodd" d="M9.29379 10.4048L6.67712 10.3985C6.38988 10.3985 6.10338 10.3626 5.8259 10.2923C4.5367 9.96677 0.296301 8.89591 0.296301 8.89591C0.115557 8.8509 -0.0029396 8.69551 5.54894e-05 8.52746V2.90945C5.54894e-05 2.70133 0.179298 2.53468 0.399785 2.53468H2.77954L8.4418 2.00874C8.70729 1.98413 8.97578 2.01155 9.22928 2.0903C9.87801 2.2928 11.4192 2.77305 12.3551 3.06485C12.9603 3.25399 13.4246 3.71454 13.5911 4.2911L14.7775 8.40791C15.5238 8.988 16 9.86268 16 10.8415C16 12.5846 14.4903 14 12.6311 14C10.7712 14 9.26142 12.5846 9.26142 10.8415C9.26142 10.6932 9.27279 10.5476 9.29379 10.4048ZM10.1045 10.4062L10.2875 10.4069C10.6355 10.4076 10.9692 10.279 11.2152 10.0483C11.4612 9.8177 11.6 9.50552 11.6 9.17927V9.01122C11.6 8.88887 11.5805 8.76933 11.5445 8.65825C11.8737 8.51341 12.2427 8.43255 12.6312 8.43255C14.0486 8.43255 15.1999 9.51186 15.1999 10.8415C15.1999 12.1704 14.0487 13.2497 12.6312 13.2497C11.213 13.2497 10.0617 12.1704 10.0617 10.8415C10.0617 10.6931 10.076 10.5476 10.1045 10.4062ZM13.7966 7.87631C13.4336 7.75115 13.0406 7.68225 12.6318 7.68225C12.5928 7.68225 12.5546 7.68295 12.5156 7.68436L11.7551 6.79771C11.2729 6.23591 10.5447 5.90895 9.7753 5.90895H6.64946L6.14997 5.30426C6.01497 5.13973 5.76374 5.1102 5.58898 5.23676C5.41423 5.36332 5.38274 5.59887 5.51774 5.76341C5.51774 5.76341 6.5482 7.01146 7.18792 7.78698C7.5764 8.25808 8.17638 8.53369 8.81161 8.53369H10.2906C10.5726 8.53369 10.8005 8.74744 10.8005 9.01041V9.17846C10.8005 9.30502 10.7465 9.42736 10.6505 9.51666C10.5545 9.60596 10.4248 9.65588 10.2898 9.65588L6.67859 9.64744C6.4611 9.64744 6.24436 9.62072 6.03361 9.56729L0.800262 8.24539V3.28348H2.80045C2.8132 3.28348 2.8267 3.28278 2.83944 3.28137L8.52129 2.75403C8.67504 2.73996 8.83029 2.75543 8.97653 2.80114C9.626 3.00364 11.1672 3.48388 12.1031 3.77568C12.4534 3.88537 12.7226 4.15114 12.8186 4.48584L13.7958 7.87562L13.7966 7.87631ZM11.6134 7.8292C11.4304 7.88404 11.2534 7.95295 11.0847 8.03451C10.8649 7.87701 10.5897 7.7842 10.2912 7.7842H8.81225C8.42452 7.7842 8.05853 7.61545 7.82078 7.32858L7.26805 6.65919H9.77529C10.3025 6.65919 10.802 6.88279 11.132 7.2681L11.6134 7.8292Z" fill="black"/>
</svg>
